<svg xmlns="http://www.w3.org/2000/svg" version="1.1" xmlns:xlink="http://www.w3.org/1999/xlink" preserveAspectRatio="none" x="0px" y="0px" width="500px" height="500px" viewBox="0 0 500 500">
<defs>
<g id="Layer0_0_FILL">
<path fill="#E60000" stroke="none" d="
M 305.5 179.6
Q 305.5 173.35 300.85 169.1 296.15 164.8 289.9 165.35 250.55 168.75 216.45 188.65 183.4 208.1 161.25 239.65 157.65 245.05 159.1 251.25 160.45 257.35 165.8 260.4
L 209.05 285.3 209.05 320.8
Q 209.05 323.7 211.1 325.75 213.15 327.8 216 327.8 218.9 327.8 220.95 325.75 222.9 323.7 222.9 320.8
L 222.9 316.7
Q 222.9 313.8 225 311.75 227.05 309.7 229.9 309.7 232.8 309.7 234.85 311.75 236.9 313.8 236.9 316.7
L 236.9 343.65
Q 236.9 346.55 238.95 348.6 241.05 350.65 243.9 350.65 246.75 350.65 248.85 348.6 250.9 346.55 250.9 343.65
L 250.9 325.85
Q 250.9 322.95 252.85 320.9 254.95 318.85 257.8 318.85 260.65 318.85 262.75 320.9 264.8 322.95 264.8 325.85
L 264.8 331.05
Q 264.8 333.9 266.85 335.95 268.9 338 271.8 338 274.65 338 276.7 335.95 278.75 333.9 278.75 331.05
L 278.75 325.65 292.15 333.35
Q 296.6 335.95 301 333.35 305.5 330.75 305.5 325.55
L 305.5 179.6
M 248.3 227.55
Q 251.35 222.3 257.25 220.75 263.2 219.15 268.45 222.2 273.75 225.25 275.3 231.25 276.9 237.15 273.75 242.45 270.7 247.75 264.8 249.25 258.85 250.8 253.6 247.75 248.3 244.6 246.75 238.8 245.25 232.85 248.3 227.55
M 264.35 291.5
Q 262.8 285.55 265.85 280.3 268.9 275 274.85 273.45 280.75 271.85 286.05 274.9 291.35 277.95 292.85 283.95 294.45 289.9 291.35 295.15 288.3 300.45 282.35 302 276.45 303.5 271.15 300.45 265.85 297.3 264.35 291.5
M 206.35 230.9
Q 212.25 229.35 217.45 232.4 222.75 235.55 224.35 241.45 225.95 247.4 222.85 252.6 219.7 257.85 213.85 259.5 207.95 261 202.65 257.95 197.35 254.9 195.75 249 194.25 243.1 197.3 237.8 200.4 232.5 206.35 230.9 Z"/>
</g>
</defs>

<g transform="matrix( 1, 0, 0, 1, 0,0) ">
<use xlink:href="#Layer0_0_FILL"/>
</g>
</svg>
